<svg version="1.1" xmlns="http://www.w3.org/2000/svg" viewBox="0 0 1183.4314722856973 603.4848750692136" width="1183.4314722856973" height="603.4848750692136">
  <!-- svg-source:excalidraw -->
  
  <defs>
    <style class="style-fonts">
      @font-face {
        font-family: "Virgil";
        src: url("https://unpkg.com/@excalidraw/excalidraw@undefined/dist/excalidraw-assets/Virgil.woff2");
      }
      @font-face {
        font-family: "Cascadia";
        src: url("https://unpkg.com/@excalidraw/excalidraw@undefined/dist/excalidraw-assets/Cascadia.woff2");
      }
      @font-face {
        font-family: "Assistant";
        src: url("https://unpkg.com/@excalidraw/excalidraw@undefined/dist/excalidraw-assets/Assistant-Regular.woff2");
      }
    </style>
    
  </defs>
  <rect x="0" y="0" width="1183.4314722856973" height="603.4848750692136" fill="#ffffff"></rect><g transform="translate(106.20734567273644 26.045786459521366) rotate(0 22.41997528076172 12.5)"><text x="0" y="0" font-family="Virgil, Segoe UI Emoji" font-size="20px" fill="#1e1e1e" text-anchor="start" style="white-space: pre;" direction="ltr" dominant-baseline="text-before-edge">todo</text></g><g stroke-linecap="round"><g transform="translate(11.192775924876287 66.71913610697709) rotate(0 568.0621185302734 0)"><path d="M-1.19 -0.49 C188.06 -0.69, 945.65 -0.39, 1135.29 -0.29 M0.38 -1.79 C190.04 -1.9, 948.26 0.55, 1137.57 1.09" stroke="#1e1e1e" stroke-width="2" fill="none"></path></g></g><mask></mask><g stroke-linecap="round"><g transform="translate(259.1743914959495 11.488083144947893) rotate(0 0 290.1349673381212)"><path d="M-0.83 -0.29 C-0.54 96.52, 0.26 483.75, 0.56 580.39 M0.93 -1.49 C1.22 95.58, -0.05 484.99, -0.1 582" stroke="#1e1e1e" stroke-width="2" fill="none"></path></g></g><mask></mask><g stroke-linecap="round"><g transform="translate(569.5019296772582 14.992958399155953) rotate(0 0 285.99755046297037)"><path d="M0.56 0.12 C0.85 95.39, 0.96 475.84, 0.91 571.32 M-0.61 -0.86 C-0.33 94.58, 0.4 477.16, 0.44 572.51" stroke="#1e1e1e" stroke-width="2" fill="none"></path></g></g><mask></mask><g stroke-linecap="round"><g transform="translate(942.074580939832 17.298167727303962) rotate(0 0 283.33020580866196)"><path d="M0.91 -0.67 C0.87 93.92, 0.25 472.93, 0.27 567.68 M-0.07 1.59 C-0.3 95.86, -0.68 472.01, -0.53 566.09" stroke="#1e1e1e" stroke-width="2" fill="none"></path></g></g><mask></mask><g transform="translate(313.8518457908433 24.000534939537886) rotate(0 47.26994323730469 12.5)"><text x="0" y="0" font-family="Virgil, Segoe UI Emoji" font-size="20px" fill="#1e1e1e" text-anchor="start" style="white-space: pre;" direction="ltr" dominant-baseline="text-before-edge">inprogress</text></g><g transform="translate(640.4186273715834 21.997195800295913) rotate(0 32.629966735839844 12.5)"><text x="0" y="0" font-family="Virgil, Segoe UI Emoji" font-size="20px" fill="#1e1e1e" text-anchor="start" style="white-space: pre;" direction="ltr" dominant-baseline="text-before-edge">pending</text></g><g transform="translate(1015.2493922433989 29.108070478924958) rotate(0 21.369979858398438 12.5)"><text x="0" y="0" font-family="Virgil, Segoe UI Emoji" font-size="20px" fill="#1e1e1e" text-anchor="start" style="white-space: pre;" direction="ltr" dominant-baseline="text-before-edge">done</text></g><g stroke-linecap="round" transform="translate(973.4314722856973 87.69910947962671) rotate(0 100 50)"><path d="M0 0 L200 0 L200 100 L0 100" stroke="none" stroke-width="0" fill="#fef3bd"></path><path d="M0 0 C55.89 0, 111.78 0, 200 0 M0 0 C47.97 0, 95.93 0, 200 0 M200 0 C200 37.38, 200 74.77, 200 100 M200 0 C200 28.92, 200 57.83, 200 100 M200 100 C136.93 100, 73.86 100, 0 100 M200 100 C141.02 100, 82.04 100, 0 100 M0 100 C0 77.01, 0 54.01, 0 0 M0 100 C0 79.47, 0 58.95, 0 0" stroke="#000000" stroke-width="1" fill="none"></path></g><g transform="translate(983.4314722856973 100.19910947962671) rotate(0 90 37.5)"><text x="90" y="0" font-family="Virgil, Segoe UI Emoji" font-size="20px" fill="#1e1e1e" text-anchor="middle" style="white-space: pre;" direction="ltr" dominant-baseline="text-before-edge">zoomしたりすると</text><text x="90" y="25" font-family="Virgil, Segoe UI Emoji" font-size="20px" fill="#1e1e1e" text-anchor="middle" style="white-space: pre;" direction="ltr" dominant-baseline="text-before-edge">付箋の位置がついて</text><text x="90" y="50" font-family="Virgil, Segoe UI Emoji" font-size="20px" fill="#1e1e1e" text-anchor="middle" style="white-space: pre;" direction="ltr" dominant-baseline="text-before-edge">こない</text></g><g stroke-linecap="round" transform="translate(595.6754298052285 80.68089048548603) rotate(0 100 50)"><path d="M0 0 L200 0 L200 100 L0 100" stroke="none" stroke-width="0" fill="#fef3bd"></path><path d="M0 0 C56.18 0, 112.36 0, 200 0 M0 0 C46.35 0, 92.7 0, 200 0 M200 0 C200 28.6, 200 57.2, 200 100 M200 0 C200 29.9, 200 59.8, 200 100 M200 100 C143.6 100, 87.2 100, 0 100 M200 100 C149.87 100, 99.73 100, 0 100 M0 100 C0 78.18, 0 56.36, 0 0 M0 100 C0 73.58, 0 47.16, 0 0" stroke="#000000" stroke-width="1" fill="none"></path></g><g transform="translate(605.4554667314981 105.68089048548603) rotate(0 90.21996307373047 25)"><text x="90.21996307373047" y="0" font-family="Virgil, Segoe UI Emoji" font-size="20px" fill="#1e1e1e" text-anchor="middle" style="white-space: pre;" direction="ltr" dominant-baseline="text-before-edge">offlineで日本語がで</text><text x="90.21996307373047" y="25" font-family="Virgil, Segoe UI Emoji" font-size="20px" fill="#1e1e1e" text-anchor="middle" style="white-space: pre;" direction="ltr" dominant-baseline="text-before-edge">ない</text></g><g stroke-linecap="round" transform="translate(19.148412231315774 84.12090707514682) rotate(0 100 50)"><path d="M0 0 L200 0 L200 100 L0 100" stroke="none" stroke-width="0" fill="#fef3bd"></path><path d="M0 0 C51.12 0, 102.24 0, 200 0 M0 0 C77.09 0, 154.19 0, 200 0 M200 0 C200 28.2, 200 56.4, 200 100 M200 0 C200 36.32, 200 72.64, 200 100 M200 100 C120.88 100, 41.76 100, 0 100 M200 100 C135.25 100, 70.5 100, 0 100 M0 100 C0 79.97, 0 59.94, 0 0 M0 100 C0 65.95, 0 31.89, 0 0" stroke="#000000" stroke-width="1" fill="none"></path></g><g transform="translate(28.798451904167337 96.62090707514682) rotate(0 90.34996032714844 37.5)"><text x="90.34996032714844" y="0" font-family="Virgil, Segoe UI Emoji" font-size="20px" fill="#1e1e1e" text-anchor="middle" style="white-space: pre;" direction="ltr" dominant-baseline="text-before-edge">base.html</text><text x="90.34996032714844" y="25" font-family="Virgil, Segoe UI Emoji" font-size="20px" fill="#1e1e1e" text-anchor="middle" style="white-space: pre;" direction="ltr" dominant-baseline="text-before-edge">excalidrawから開け</text><text x="90.34996032714844" y="50" font-family="Virgil, Segoe UI Emoji" font-size="20px" fill="#1e1e1e" text-anchor="middle" style="white-space: pre;" direction="ltr" dominant-baseline="text-before-edge">ない</text></g></svg>